<?xml version="1.0" encoding="utf-8"?>
<!-- Generator: Adobe Illustrator 25.3.0, SVG Export Plug-In . SVG Version: 6.00 Build 0)  -->
<svg version="1.1" id="Capa_1" xmlns="http://www.w3.org/2000/svg" xmlns:xlink="http://www.w3.org/1999/xlink" x="0px" y="0px"
	 viewBox="0 0 1005 600" style="enable-background:new 0 0 1005 600;" xml:space="preserve">
<style type="text/css">
	.st0{fill:#FFFFFF;}
	.st1{fill:#FC9C54;stroke:#CC7552;stroke-miterlimit:10;}
	.st2{fill:#71BAE2;stroke:#4168BF;stroke-miterlimit:10;}
	.st3{fill:#F2F275;stroke:#EFE059;stroke-miterlimit:10;}
	.st4{fill:#C92727;stroke:#8C0606;stroke-miterlimit:10;}
	.st5{fill:#AF8ABF;stroke:#632E82;stroke-miterlimit:10;}
	.st6{fill:none;stroke:#000000;}
	.st7{font-family:'HelveticaLTStd-Fractions';}
	.st8{font-size:9.0059px;}
	.st9{enable-background:new    ;}
	.st10{font-family:'MyriadPro-Regular';}
	.st11{font-family:'Arial-BoldMT';}
	.st12{font-family:'FranklinGothic-Demi';}
	.st13{font-size:25px;}
	.st14{font-family:'ArialMT';}
	.st15{font-size:10.8071px;}
</style>
<rect id="backgorund" class="st0" width="1005" height="600"/>
<g id="viz">
	<g transform="translate(0,0)">
		<g transform="translate(50,20)">
			<g>
				<rect id="undefined_-_China" x="117.2" y="33.2" class="st1" width="630.1" height="15.3"/>
				<rect id="undefined_-_Pakistan" x="117.2" y="48.5" class="st1" width="175.2" height="15.3"/>
				<rect id="undefined_-_India" x="117.2" y="63.8" class="st1" width="217.9" height="15.3"/>
				<rect id="undefined_-_Japan" x="117.2" y="79" class="st1" width="100.7" height="15.3"/>
				<rect id="undefined_-_Indonesia" x="117.2" y="94.3" class="st1" width="75.1" height="15.3"/>
				<rect id="undefined_-_Nigeria" x="117.2" y="109.6" class="st2" width="131" height="15.3"/>
				<rect id="undefined_-_Egypt" x="117.2" y="124.9" class="st2" width="114.7" height="15.3"/>
				<rect id="undefined_-_Democratic_Republic_of_the_Congo" x="117.2" y="140.2" class="st2" width="65.3" height="15.3"/>
				<rect id="undefined_-_Somalia" x="117.2" y="155.5" class="st2" width="47.3" height="15.3"/>
				<rect id="undefined_-_Sudan" x="117.2" y="170.7" class="st2" width="38.6" height="15.3"/>
				<rect id="undefined_-_Angola" x="117.2" y="186" class="st2" width="35.6" height="15.3"/>
				<rect id="undefined_-_Tanzania" x="117.2" y="201.3" class="st2" width="32.5" height="15.3"/>
				<rect id="undefined_-_Ivory_Coast" x="117.2" y="216.6" class="st2" width="30.8" height="15.3"/>
				<rect id="undefined_-_South_Africa" x="117.2" y="231.9" class="st2" width="27.4" height="15.3"/>
				<rect id="undefined_-_Turkey" x="117.2" y="247.1" class="st3" width="104.6" height="15.3"/>
				<rect id="undefined_-_Russia" x="117.2" y="262.4" class="st3" width="130.9" height="15.3"/>
				<rect id="undefined_-_United_Kingdom" x="117.2" y="277.7" class="st3" width="64.7" height="15.3"/>
				<rect id="undefined_-_Germany" x="117.2" y="293" class="st3" width="26.6" height="15.3"/>
				<rect id="undefined_-_Spain" x="117.2" y="308.3" class="st3" width="23.6" height="15.3"/>
				<rect id="undefined_-_Ukraine" x="117.2" y="323.6" class="st3" width="21.7" height="15.3"/>
				<rect id="undefined_-_Italy" x="117.2" y="338.8" class="st3" width="21.4" height="15.3"/>
				<rect id="undefined_-_France" x="117.2" y="354.1" class="st3" width="16.7" height="15.3"/>
				<rect id="undefined_-_Belarus" x="117.2" y="369.4" class="st3" width="14.5" height="15.3"/>
				<rect id="undefined_-_Mexico" x="117.2" y="384.7" class="st4" width="79" height="15.3"/>
				<rect id="undefined_-_United_States" x="117.2" y="400" class="st4" width="142.4" height="15.3"/>
				<rect id="undefined_-_Canada" x="117.2" y="415.2" class="st4" width="34.1" height="15.3"/>
				<rect id="undefined_-_Cuba" x="117.2" y="430.5" class="st4" width="15.8" height="15.3"/>
				<rect id="undefined_-_Brazil" x="117.2" y="445.8" class="st5" width="200.3" height="15.3"/>
				<rect id="undefined_-_Peru" x="117.2" y="461.1" class="st5" width="66.3" height="15.3"/>
				<rect id="undefined_-_Colombia" x="117.2" y="476.4" class="st5" width="58.6" height="15.3"/>
				<rect id="undefined_-_Chile" x="117.2" y="491.7" class="st5" width="41.1" height="15.3"/>
				<rect id="undefined_-_Venezuela" x="117.2" y="506.9" class="st5" width="24.5" height="15.3"/>
				<rect id="undefined_-_Argentina" x="117.2" y="522.2" class="st5" width="22.8" height="15.3"/>
			</g>
			<g id="xAxis" transform="translate(0,560)">
				<path class="st6" d="M117.2-17.1v-5.4h670.9v5.4"/>
				<g transform="translate(0,0)">
					<line class="st6" x1="117.2" y1="-22.5" x2="117.2" y2="-17.1"/>
					<text transform="matrix(1 0 0 1 114.7325 -7.9963)" class="st7 st8">0</text>
				</g>
				<g transform="translate(82.77777777777777,0)">
					<line class="st6" x1="109" y1="-22.5" x2="109" y2="-17.1"/>
					<text transform="matrix(1 0 0 1 84.4752 -7.9963)" class="st9"><tspan x="0" y="0" class="st7 st8">10</tspan><tspan x="10" y="0" class="st10 st8">,</tspan><tspan x="11.9" y="0" class="st7 st8">000</tspan><tspan x="26.9" y="0" class="st10 st8">,</tspan><tspan x="28.8" y="0" class="st7 st8">000</tspan></text>
				</g>
				<g transform="translate(165.55555555555554,0)">
					<line class="st6" x1="100.8" y1="-22.5" x2="100.8" y2="-17.1"/>
					<text transform="matrix(1 0 0 1 76.2463 -7.9963)" class="st9"><tspan x="0" y="0" class="st7 st8">20</tspan><tspan x="10" y="0" class="st10 st8">,</tspan><tspan x="11.9" y="0" class="st7 st8">000</tspan><tspan x="26.9" y="0" class="st10 st8">,</tspan><tspan x="28.8" y="0" class="st7 st8">000</tspan></text>
				</g>
				<g transform="translate(248.33333333333331,0)">
					<line class="st6" x1="92.5" y1="-22.5" x2="92.5" y2="-17.1"/>
					<text transform="matrix(1 0 0 1 68.0178 -7.9963)" class="st9"><tspan x="0" y="0" class="st7 st8">30</tspan><tspan x="10" y="0" class="st10 st8">,</tspan><tspan x="11.9" y="0" class="st7 st8">000</tspan><tspan x="26.9" y="0" class="st10 st8">,</tspan><tspan x="28.8" y="0" class="st7 st8">000</tspan></text>
				</g>
				<g transform="translate(331.1111111111111,0)">
					<line class="st6" x1="84.3" y1="-22.5" x2="84.3" y2="-17.1"/>
					<text transform="matrix(1 0 0 1 59.7889 -7.9963)" class="st9"><tspan x="0" y="0" class="st7 st8">40</tspan><tspan x="10" y="0" class="st10 st8">,</tspan><tspan x="11.9" y="0" class="st7 st8">000</tspan><tspan x="26.9" y="0" class="st10 st8">,</tspan><tspan x="28.8" y="0" class="st7 st8">000</tspan></text>
				</g>
				<g transform="translate(413.8888888888889,0)">
					<line class="st6" x1="76.1" y1="-22.5" x2="76.1" y2="-17.1"/>
					<text transform="matrix(1 0 0 1 51.5604 -7.9963)" class="st9"><tspan x="0" y="0" class="st7 st8">50</tspan><tspan x="10" y="0" class="st10 st8">,</tspan><tspan x="11.9" y="0" class="st7 st8">000</tspan><tspan x="26.9" y="0" class="st10 st8">,</tspan><tspan x="28.8" y="0" class="st7 st8">000</tspan></text>
				</g>
				<g transform="translate(496.66666666666663,0)">
					<line class="st6" x1="67.9" y1="-22.5" x2="67.9" y2="-17.1"/>
					<text transform="matrix(1 0 0 1 43.3315 -7.9963)" class="st9"><tspan x="0" y="0" class="st7 st8">60</tspan><tspan x="10" y="0" class="st10 st8">,</tspan><tspan x="11.9" y="0" class="st7 st8">000</tspan><tspan x="26.9" y="0" class="st10 st8">,</tspan><tspan x="28.8" y="0" class="st7 st8">000</tspan></text>
				</g>
				<g transform="translate(579.4444444444445,0)">
					<line class="st6" x1="59.6" y1="-22.5" x2="59.6" y2="-17.1"/>
					<text transform="matrix(1 0 0 1 35.1025 -7.9963)" class="st9"><tspan x="0" y="0" class="st7 st8">70</tspan><tspan x="10" y="0" class="st10 st8">,</tspan><tspan x="11.9" y="0" class="st7 st8">000</tspan><tspan x="26.9" y="0" class="st10 st8">,</tspan><tspan x="28.8" y="0" class="st7 st8">000</tspan></text>
				</g>
				<g transform="translate(662.2222222222222,0)">
					<line class="st6" x1="51.4" y1="-22.5" x2="51.4" y2="-17.1"/>
					<text transform="matrix(1 0 0 1 26.8745 -7.9963)" class="st9"><tspan x="0" y="0" class="st7 st8">80</tspan><tspan x="10" y="0" class="st10 st8">,</tspan><tspan x="11.9" y="0" class="st7 st8">000</tspan><tspan x="26.9" y="0" class="st10 st8">,</tspan><tspan x="28.8" y="0" class="st7 st8">000</tspan></text>
				</g>
				<g transform="translate(745,0)">
					<line class="st6" x1="43.2" y1="-22.5" x2="43.2" y2="-17.1"/>
					<text transform="matrix(1 0 0 1 18.6446 -7.9963)" class="st9"><tspan x="0" y="0" class="st7 st8">90</tspan><tspan x="10" y="0" class="st10 st8">,</tspan><tspan x="11.9" y="0" class="st7 st8">000</tspan><tspan x="26.9" y="0" class="st10 st8">,</tspan><tspan x="28.8" y="0" class="st7 st8">000</tspan></text>
				</g>
				<text transform="matrix(1 0 0 1 714.6348 -26.9993)" class="st11 st8">POBLACIÓN [sum]</text>
			</g>
			<g id="yAxis" transform="translate(0,0)">
				<path class="st6" d="M117.2,33.2v504.3"/>
				<g transform="translate(0,8.499540068178092)">
					<line class="st6" x1="117.2" y1="32.3" x2="111.8" y2="32.3"/>
					<text transform="matrix(1 0 0 1 86.6158 35.2092)" class="st10 st8">China</text>
				</g>
				<g transform="translate(0,25.468318813916962)">
					<line class="st6" x1="117.2" y1="30.6" x2="111.8" y2="30.6"/>
					<text transform="matrix(1 0 0 1 73.107 33.5222)" class="st10 st8">Pakistan</text>
				</g>
				<g transform="translate(0,42.43709755965583)">
					<line class="st6" x1="117.2" y1="29" x2="111.8" y2="29"/>
					<text transform="matrix(1 0 0 1 86.6158 31.8351)" class="st10 st8">India</text>
				</g>
				<g transform="translate(0,59.4058763053947)">
					<line class="st6" x1="117.2" y1="27.3" x2="111.8" y2="27.3"/>
					<text transform="matrix(1 0 0 1 86.6158 30.1491)" class="st10 st8">Japan</text>
				</g>
				<g transform="translate(0,76.37465505113357)">
					<line class="st6" x1="117.2" y1="25.6" x2="111.8" y2="25.6"/>
					<text transform="matrix(1 0 0 1 68.6036 28.462)" class="st10 st8">Indonesia</text>
				</g>
				<g transform="translate(0,93.34343379687245)">
					<line class="st6" x1="117.2" y1="23.9" x2="111.8" y2="23.9"/>
					<text transform="matrix(1 0 0 1 77.6099 26.775)" class="st10 st8">Nigeria</text>
				</g>
				<g transform="translate(0,110.3122125426113)">
					<line class="st6" x1="117.2" y1="22.2" x2="111.8" y2="22.2"/>
					<text transform="matrix(1 0 0 1 86.6158 25.0879)" class="st10 st8">Egypt</text>
				</g>
				<g transform="translate(0,127.28099128835018)">
					<line class="st6" x1="117.2" y1="20.5" x2="111.8" y2="20.5"/>
					<text transform="matrix(1 0 0 1 -28.1196 23.4014)" class="st9"><tspan x="0" y="0" class="st10 st8">Democratic</tspan><tspan x="43.4" y="0" class="st7 st8"> </tspan><tspan x="46.2" y="0" class="st10 st8">Republic</tspan><tspan x="79" y="0" class="st7 st8"> </tspan><tspan x="81.8" y="0" class="st10 st8">of</tspan><tspan x="89.4" y="0" class="st7 st8"> </tspan><tspan x="92.2" y="0" class="st10 st8">the</tspan><tspan x="104.7" y="0" class="st7 st8"> </tspan><tspan x="107.5" y="0" class="st10 st8">Congo</tspan></text>
				</g>
				<g transform="translate(0,144.24977003408907)">
					<line class="st6" x1="117.2" y1="18.8" x2="111.8" y2="18.8"/>
					<text transform="matrix(1 0 0 1 77.6099 21.7148)" class="st10 st8">Somalia</text>
				</g>
				<g transform="translate(0,161.21854877982793)">
					<line class="st6" x1="117.2" y1="17.1" x2="111.8" y2="17.1"/>
					<text transform="matrix(1 0 0 1 86.6158 20.0278)" class="st10 st8">Sudan</text>
				</g>
				<g transform="translate(0,178.1873275255668)">
					<line class="st6" x1="117.2" y1="15.5" x2="111.8" y2="15.5"/>
					<text transform="matrix(1 0 0 1 82.1129 18.3407)" class="st10 st8">Angola</text>
				</g>
				<g transform="translate(0,195.15610627130565)">
					<line class="st6" x1="117.2" y1="13.8" x2="111.8" y2="13.8"/>
					<text transform="matrix(1 0 0 1 73.107 16.6542)" class="st10 st8">Tanzania</text>
				</g>
				<g transform="translate(0,212.1248850170445)">
					<line class="st6" x1="117.2" y1="12.1" x2="111.8" y2="12.1"/>
					<text transform="matrix(1 0 0 1 61.3092 14.9672)" class="st9"><tspan x="0" y="0" class="st10 st8">Ivory</tspan><tspan x="18.6" y="0" class="st7 st8"> </tspan><tspan x="21.4" y="0" class="st10 st8">Coast</tspan></text>
				</g>
				<g transform="translate(0,229.09366376278342)">
					<line class="st6" x1="117.2" y1="10.4" x2="111.8" y2="10.4"/>
					<text transform="matrix(1 0 0 1 56.8062 13.2806)" class="st9"><tspan x="0" y="0" class="st10 st8">South</tspan><tspan x="22.3" y="0" class="st7 st8"> </tspan><tspan x="25.1" y="0" class="st10 st8">Africa</tspan></text>
				</g>
				<g transform="translate(0,246.06244250852228)">
					<line class="st6" x1="117.2" y1="8.7" x2="111.8" y2="8.7"/>
					<text transform="matrix(1 0 0 1 82.1129 11.5936)" class="st10 st8">Turkey</text>
				</g>
				<g transform="translate(0,263.03122125426114)">
					<line class="st6" x1="117.2" y1="7" x2="111.8" y2="7"/>
					<text transform="matrix(1 0 0 1 82.1129 9.907)" class="st10 st8">Russia</text>
				</g>
				<g transform="translate(0,280)">
					<line class="st6" x1="117.2" y1="5.3" x2="111.8" y2="5.3"/>
					<text transform="matrix(1 0 0 1 47.8004 8.2195)" class="st9"><tspan x="0" y="0" class="st10 st8">United</tspan><tspan x="25.5" y="0" class="st7 st8"> </tspan><tspan x="28.3" y="0" class="st10 st8">Kingdom</tspan></text>
				</g>
				<g transform="translate(0,296.96877874573886)">
					<line class="st6" x1="117.2" y1="3.7" x2="111.8" y2="3.7"/>
					<text transform="matrix(1 0 0 1 77.6099 6.5339)" class="st10 st8">Germany</text>
				</g>
				<g transform="translate(0,313.9375574914777)">
					<line class="st6" x1="117.2" y1="2" x2="111.8" y2="2"/>
					<text transform="matrix(1 0 0 1 86.6158 4.8464)" class="st10 st8">Spain</text>
				</g>
				<g transform="translate(0,330.90633623721664)">
					<line class="st6" x1="117.2" y1="0.3" x2="111.8" y2="0.3"/>
					<text transform="matrix(1 0 0 1 77.6099 3.1598)" class="st10 st8">Ukraine</text>
				</g>
				<g transform="translate(0,347.8751149829555)">
					<line class="st6" x1="117.2" y1="-1.4" x2="111.8" y2="-1.4"/>
					<text transform="matrix(1 0 0 1 86.6158 1.4733)" class="st10 st8">Italy</text>
				</g>
				<g transform="translate(0,364.84389372869435)">
					<line class="st6" x1="117.2" y1="-3.1" x2="111.8" y2="-3.1"/>
					<text transform="matrix(1 0 0 1 82.1129 -0.2143)" class="st10 st8">France</text>
				</g>
				<g transform="translate(0,381.8126724744332)">
					<line class="st6" x1="117.2" y1="-4.8" x2="111.8" y2="-4.8"/>
					<text transform="matrix(1 0 0 1 77.6099 -1.9018)" class="st10 st8">Belarus</text>
				</g>
				<g transform="translate(0,398.7814512201721)">
					<line class="st6" x1="117.2" y1="-6.5" x2="111.8" y2="-6.5"/>
					<text transform="matrix(1 0 0 1 82.1129 -3.5874)" class="st10 st8">Mexico</text>
				</g>
				<g transform="translate(0,415.75022996591093)">
					<line class="st6" x1="117.2" y1="-8.2" x2="111.8" y2="-8.2"/>
					<text transform="matrix(1 0 0 1 52.3028 -5.2749)" class="st9"><tspan x="0" y="0" class="st10 st8">United</tspan><tspan x="25.5" y="0" class="st7 st8"> </tspan><tspan x="28.3" y="0" class="st10 st8">States</tspan></text>
				</g>
				<g transform="translate(0,432.71900871164985)">
					<line class="st6" x1="117.2" y1="-9.8" x2="111.8" y2="-9.8"/>
					<text transform="matrix(1 0 0 1 82.1129 -6.9604)" class="st10 st8">Canada</text>
				</g>
				<g transform="translate(0,449.6877874573887)">
					<line class="st6" x1="117.2" y1="-11.5" x2="111.8" y2="-11.5"/>
					<text transform="matrix(1 0 0 1 91.1187 -8.648)" class="st10 st8">Cuba</text>
				</g>
				<g transform="translate(0,466.65656620312757)">
					<line class="st6" x1="117.2" y1="-13.2" x2="111.8" y2="-13.2"/>
					<text transform="matrix(1 0 0 1 82.1129 -10.3355)" class="st10 st8">Brazil</text>
				</g>
				<g transform="translate(0,483.6253449488664)">
					<line class="st6" x1="117.2" y1="-14.9" x2="111.8" y2="-14.9"/>
					<text transform="matrix(1 0 0 1 91.1187 -12.0211)" class="st10 st8">Peru</text>
				</g>
				<g transform="translate(0,500.5941236946053)">
					<line class="st6" x1="117.2" y1="-16.6" x2="111.8" y2="-16.6"/>
					<text transform="matrix(1 0 0 1 73.107 -13.7086)" class="st10 st8">Colombia</text>
				</g>
				<g transform="translate(0,517.5629024403443)">
					<line class="st6" x1="117.2" y1="-18.3" x2="111.8" y2="-18.3"/>
					<text transform="matrix(1 0 0 1 86.6158 -15.3962)" class="st10 st8">Chile</text>
				</g>
				<g transform="translate(0,534.531681186083)">
					<line class="st6" x1="117.2" y1="-20" x2="111.8" y2="-20"/>
					<text transform="matrix(1 0 0 1 68.6036 -17.0827)" class="st10 st8">Venezuela</text>
				</g>
				<g transform="translate(0,551.500459931822)">
					<line class="st6" x1="117.2" y1="-21.7" x2="111.8" y2="-21.7"/>
					<text transform="matrix(1 0 0 1 68.6036 -18.7693)" class="st10 st8">Argentina</text>
				</g>
				<text transform="matrix(1 0 0 1 117.2357 22.2812)" class="st12 st13">PAÍS</text>
			</g>
		</g>
	</g>
</g>
<g id="legend" transform="translate(805,20)">
	<g transform="translate(5,0)">
		<g transform="translate(0,0)">
			<g transform="translate(0,16.5)">
				<g transform="translate(0, 0)">
					<rect x="41.7" y="31.5" class="st2" width="13.5" height="13.5"/>
					<text transform="matrix(1 0 0 1 59.6983 42.7888)" class="st14 st8">Africa</text>
				</g>
				<g transform="translate(0, 21.5)">
					<rect x="41.7" y="29.4" class="st1" width="13.5" height="13.5"/>
					<text transform="matrix(1 0 0 1 59.6983 40.6521)" class="st14 st8">Asia</text>
				</g>
				<g transform="translate(0, 43)">
					<rect x="41.7" y="27.3" class="st3" width="13.5" height="13.5"/>
					<text transform="matrix(1 0 0 1 59.6983 38.5149)" class="st14 st8">Europe</text>
				</g>
				<g transform="translate(0, 64.5)">
					<rect x="41.7" y="25.1" class="st4" width="13.5" height="13.5"/>
					<text transform="matrix(1 0 0 1 59.6983 36.3777)" class="st14 st8">North America</text>
				</g>
				<g transform="translate(0, 86)">
					<rect x="41.7" y="23" class="st5" width="13.5" height="13.5"/>
					<text transform="matrix(1 0 0 1 59.6983 34.2405)" class="st14 st8">South America</text>
				</g>
			</g>
			<text transform="matrix(1 0 0 1 41.6866 33.1721)" class="st11 st15">CONTINENTE</text>
		</g>
	</g>
</g>
</svg>
